<svg width="144" height="144" viewBox="0 0 144 144" fill="none" xmlns="http://www.w3.org/2000/svg">
  <path transform="translate(74.17,10.98)" fill-rule="evenodd" clip-rule="evenodd" d="M33.914 0L34.3569 38.911L0.418502 55.203L0 18.4636L33.914 0Z" fill="#73CEC0"/>
  <path transform="translate(74.89,54.62)" fill-rule="evenodd" clip-rule="evenodd" d="M67.2134 17.6794L33.6167 36.8963L0 17.649L33.5993 0L67.2134 17.6794Z" fill="#73CEC0"/>
  <path transform="translate(1.70,54.62)" fill-rule="evenodd" clip-rule="evenodd" d="M67.2135 17.6794L33.6168 36.8963L0 17.649L33.5994 0L67.2135 17.6794Z" fill="#73CEC0"/>
  <path transform="translate(34.94,10.82)" fill-rule="evenodd" clip-rule="evenodd" d="M0 0L34.8711 17.2704L33.9795 54.9061L1.05469 38.5998L0 0Z" fill="#73CEC0"/>
  <path transform="translate(74.16,78.27)" fill-rule="evenodd" clip-rule="evenodd" d="M34.8711 54.9065L0 37.636L0.891566 0L33.8164 16.3066L34.8711 54.9065Z" fill="#73CEC0"/>
  <path transform="translate(35.70,78.33)" fill-rule="evenodd" clip-rule="evenodd" d="M0.443249 55.2029L0 16.292L33.9387 0L34.3572 36.7391L0.443249 55.2029Z" fill="#73CEC0"/>
</svg>
